<svg width="12" height="11" viewBox="0 0 12 11" fill="none" xmlns="http://www.w3.org/2000/svg">
<path d="M10.995 4.08243C10.9129 3.82962 10.6675 3.65586 10.3219 3.60566L7.58062 3.20728L6.3547 0.723295C6.2001 0.410063 5.95902 0.230408 5.69324 0.230408C5.42746 0.230408 5.18638 0.410063 5.03179 0.723295L3.80592 3.20726L1.06463 3.60564C0.718935 3.65584 0.473585 3.82962 0.391441 4.08238C0.309317 4.33517 0.405683 4.61996 0.655781 4.86377L2.63938 6.79725L2.17111 9.5275C2.10954 9.88663 2.21411 10.1014 2.3127 10.2183C2.42802 10.3551 2.59624 10.4304 2.78639 10.4304C2.93015 10.4304 3.08326 10.3883 3.24136 10.3051L5.69324 9.01604L8.14512 10.3051C8.30326 10.3882 8.45635 10.4304 8.60013 10.4304H8.60017C8.79034 10.4304 8.95856 10.3551 9.07388 10.2183C9.17245 10.1014 9.27704 9.88661 9.21545 9.52746L8.74711 6.79727L10.7307 4.86381C10.9808 4.62 11.0772 4.33519 10.995 4.08243Z" fill="#FF8412"/>
</svg>
